<svg xmlns="http://www.w3.org/2000/svg" version="1.1" baseProfile="full" viewBox="0 0 804 504" width="80.4ex" height="50.4ex">
<g font-size="16" font-family="monospace">
<rect x="0" y="0" width="804" height="504" fill="#000"></rect><rect x="0" y="0" width="804" height="504" fill="#000"></rect>
<rect x="2" y="2" width="10" height="20" fill="#000"></rect><g fill="#ccc"></g><rect x="12" y="2" width="70" height="20" fill="#000"></rect><g fill="#050"><text x="12" y="17">7</text><text x="22" y="17">0</text><text x="32" y="17">2</text><text x="42" y="17">.</text><text x="52" y="17">0</text><text x="62" y="17">1</text> </g><rect x="82" y="2" width="100" height="20" fill="#000"></rect><g fill="#ccc"><text x="82" y="17">7</text><text x="92" y="17">0</text><text x="102" y="17">2</text> <text x="132" y="17">1</text><text x="142" y="17">/</text><text x="152" y="17">3</text><text x="162" y="17">2</text> </g><rect x="182" y="2" width="40" height="20" fill="#000"></rect><g fill="#088"><text x="182" y="17">T</text><text x="192" y="17">G</text><text x="202" y="17">2</text> </g><rect x="222" y="2" width="100" height="20" fill="#000"></rect><g fill="#ccc"><text x="222" y="17">c</text><text x="232" y="17">z</text><text x="242" y="17">w</text><text x="252" y="17">.</text><text x="262" y="17">3</text><text x="272" y="17">1</text><text x="282" y="17">.</text><text x="292" y="17">0</text><text x="302" y="17">1</text> </g><rect x="322" y="2" width="90" height="20" fill="#000"></rect><g fill="#c70"><text x="322" y="17">1</text><text x="332" y="17">7</text><text x="342" y="17">:</text><text x="352" y="17">0</text><text x="362" y="17">6</text><text x="372" y="17">:</text><text x="382" y="17">2</text><text x="392" y="17">2</text> </g><rect x="412" y="2" width="120" height="20" fill="#000"></rect><g fill="#ccc"><text x="412" y="17">│</text> <text x="432" y="17">L</text><text x="442" y="17">o</text><text x="452" y="17">o</text><text x="462" y="17">k</text> <text x="482" y="17">f</text><text x="492" y="17">o</text><text x="502" y="17">r</text><text x="512" y="17">:</text> </g><rect x="532" y="2" width="30" height="20" fill="#000"></rect><g font-weight="bold" fill="#fff"><text x="532" y="17">3</text><text x="542" y="17">0</text><text x="552" y="17">0</text></g><rect x="562" y="2" width="30" height="20" fill="#000"></rect><g fill="#ccc"><text x="562" y="17">_</text><text x="572" y="17">_</text><text x="582" y="17">_</text></g><rect x="592" y="2" width="210" height="20" fill="#000"></rect><g fill="#ccc"></g>
<rect x="2" y="22" width="10" height="20" fill="#000"></rect><g fill="#ccc"></g><rect x="12" y="22" width="390" height="20" fill="#000"></rect><g font-weight="bold" fill="#fff"><text x="12" y="37">⠀</text><text x="22" y="37">⠹</text><text x="32" y="37">⠏</text><text x="42" y="37">⠹</text><text x="52" y="37">⠆</text><text x="62" y="37">⠄</text><text x="72" y="37">⠤</text><text x="82" y="37">⠀</text><text x="92" y="37">⠤</text><text x="102" y="37">⠤</text><text x="112" y="37">⠀</text><text x="122" y="37">⠠</text><text x="132" y="37">⠤</text><text x="142" y="37">⠄</text><text x="152" y="37">⠠</text><text x="162" y="37">⠠</text><text x="172" y="37">⠄</text><text x="182" y="37">⠠</text><text x="192" y="37">⠤</text><text x="202" y="37">⠄</text><text x="212" y="37">⠀</text><text x="222" y="37">⠠</text><text x="232" y="37">⠤</text><text x="242" y="37">⠠</text><text x="252" y="37">⠄</text><text x="262" y="37">⠀</text><text x="272" y="37">⠏</text><text x="282" y="37">⠭</text><text x="292" y="37">⠍</text><text x="302" y="37">⠏</text><text x="312" y="37">⠍</text><text x="322" y="37">⠍</text><text x="332" y="37">⠏</text><text x="342" y="37">⠭</text><text x="352" y="37">⠍</text><text x="362" y="37">⠇</text><text x="372" y="37">⠾</text><text x="382" y="37">⠛</text><text x="392" y="37">⠷</text> </g><rect x="402" y="22" width="20" height="20" fill="#000"></rect><g fill="#ccc"><text x="412" y="37">│</text></g><rect x="422" y="22" width="380" height="20" fill="#000"></rect><g fill="#ccc"></g>
<rect x="2" y="42" width="10" height="20" fill="#000"></rect><g fill="#ccc"></g><rect x="12" y="42" width="390" height="20" fill="#000"></rect><g font-weight="bold" fill="#fff"><text x="12" y="57">⠀</text><text x="22" y="57">⠸</text><text x="32" y="57">⠏</text><text x="42" y="57">⠉</text><text x="52" y="57">⠀</text><text x="62" y="57">⠸</text><text x="72" y="57">⠇</text><text x="82" y="57">⠸</text><text x="92" y="57">⠇</text><text x="102" y="57">⠸</text><text x="112" y="57">⠇</text><text x="122" y="57">⠿</text><text x="132" y="57">⠀</text><text x="142" y="57">⠿</text><text x="152" y="57">⠀</text><text x="162" y="57">⠿</text><text x="172" y="57">⠀</text><text x="182" y="57">⠴</text><text x="192" y="57">⠒</text><text x="202" y="57">⠿</text><text x="212" y="57">⠀</text><text x="222" y="57">⠿</text><text x="232" y="57">⠸</text><text x="242" y="57">⠇</text><text x="252" y="57">⠿</text><text x="262" y="57">⠀</text><text x="272" y="57">⠇</text><text x="282" y="57">⠸</text><text x="292" y="57">⠀</text><text x="302" y="57">⠇</text><text x="312" y="57">⠇</text><text x="322" y="57">⠇</text><text x="332" y="57">⠇</text><text x="342" y="57">⠗</text><text x="352" y="57">⠃</text><text x="362" y="57">⠇</text><text x="372" y="57">⠀</text><text x="382" y="57">⠴</text><text x="392" y="57">⠟</text> </g><rect x="402" y="42" width="200" height="20" fill="#000"></rect><g fill="#ccc"><text x="412" y="57">│</text> <text x="432" y="57">L</text><text x="442" y="57">o</text><text x="452" y="57">o</text><text x="462" y="57">k</text><text x="472" y="57">i</text><text x="482" y="57">n</text><text x="492" y="57">g</text> <text x="512" y="57">f</text><text x="522" y="57">o</text><text x="532" y="57">r</text> <text x="552" y="57">3</text><text x="562" y="57">0</text><text x="572" y="57">0</text><text x="582" y="57">.</text><text x="592" y="57">*</text></g><rect x="602" y="42" width="200" height="20" fill="#000"></rect><g fill="#ccc"></g>
<rect x="2" y="62" width="10" height="20" fill="#000"></rect><g fill="#ccc"></g><rect x="12" y="62" width="390" height="20" fill="#000"></rect><g font-weight="bold" fill="#fff"><text x="12" y="77">⠀</text><text x="22" y="77">⠭</text><text x="32" y="77">⠭</text><text x="42" y="77">⠤</text><text x="52" y="77">⠤</text><text x="62" y="77">⠬</text><text x="72" y="77">⠥</text><text x="82" y="77">⠤</text><text x="92" y="77">⠭</text><text x="102" y="77">⠭</text><text x="112" y="77">⠤</text><text x="122" y="77">⠬</text><text x="132" y="77">⠭</text><text x="142" y="77">⠟</text><text x="152" y="77">⠠</text><text x="162" y="77">⠭</text><text x="172" y="77">⠤</text><text x="182" y="77">⠬</text><text x="192" y="77">⠭</text><text x="202" y="77">⠬</text><text x="212" y="77">⠥</text><text x="222" y="77">⠭</text><text x="232" y="77">⠬</text><text x="242" y="77">⠥</text><text x="252" y="77">⠭</text><text x="262" y="77">⠀</text><text x="272" y="77">⠧</text><text x="282" y="77">⠬</text><text x="292" y="77">⠤</text><text x="302" y="77">⠧</text><text x="312" y="77">⠬</text><text x="322" y="77">⠤</text><text x="332" y="77">⠧</text><text x="342" y="77">⠥</text><text x="352" y="77">⠤</text><text x="362" y="77">⠇</text><text x="372" y="77">⠾</text><text x="382" y="77">⠿</text><text x="392" y="77">⠶</text> </g><rect x="402" y="62" width="20" height="20" fill="#000"></rect><g fill="#ccc"><text x="412" y="77">│</text></g><rect x="422" y="62" width="380" height="20" fill="#000"></rect><g fill="#ccc"></g>
<rect x="2" y="82" width="10" height="20" fill="#000"></rect><g fill="#ccc"></g><rect x="12" y="82" width="390" height="20" fill="#000"></rect><g font-weight="bold" fill="#ff0"><text x="12" y="97">⠶</text><text x="22" y="97">⠶</text><text x="32" y="97">⠶</text><text x="42" y="97">⠶</text><text x="52" y="97">⠶</text><text x="62" y="97">⠶</text><text x="72" y="97">⠶</text><text x="82" y="97">⠶</text><text x="92" y="97">⠶</text><text x="102" y="97">⠶</text><text x="112" y="97">⠶</text><text x="122" y="97">⠶</text><text x="132" y="97">⠶</text><text x="142" y="97">⠶</text><text x="152" y="97">⠶</text><text x="162" y="97">⠶</text><text x="172" y="97">⠶</text><text x="182" y="97">⠶</text><text x="192" y="97">⠶</text><text x="202" y="97">⠶</text><text x="212" y="97">⠶</text><text x="222" y="97">⠶</text><text x="232" y="97">⠶</text><text x="242" y="97">⠶</text><text x="252" y="97">⠶</text><text x="262" y="97">⠶</text><text x="272" y="97">⠶</text><text x="282" y="97">⠶</text><text x="292" y="97">⠶</text><text x="302" y="97">⠶</text><text x="312" y="97">⠶</text><text x="322" y="97">⠶</text><text x="332" y="97">⠶</text><text x="342" y="97">⠶</text><text x="352" y="97">⠶</text><text x="362" y="97">⠶</text><text x="372" y="97">⠶</text><text x="382" y="97">⠶</text><text x="392" y="97">⠶</text> </g><rect x="402" y="82" width="20" height="20" fill="#000"></rect><g fill="#ccc"><text x="412" y="97">│</text> </g><rect x="422" y="82" width="10" height="20" fill="#000"></rect><g fill="#ccc"></g><rect x="432" y="82" width="340" height="20" fill="#000"></rect><g fill="#ccc"><text x="432" y="97">S</text><text x="442" y="97">h</text><text x="452" y="97">o</text><text x="462" y="97">w</text><text x="472" y="97">i</text><text x="482" y="97">n</text><text x="492" y="97">g</text> <text x="512" y="97">p</text><text x="522" y="97">a</text><text x="532" y="97">g</text><text x="542" y="97">e</text> <text x="562" y="97">3</text><text x="572" y="97">0</text><text x="582" y="97">0</text><text x="592" y="97">,</text> <text x="612" y="97">s</text><text x="622" y="97">u</text><text x="632" y="97">b</text><text x="642" y="97">p</text><text x="652" y="97">a</text><text x="662" y="97">g</text><text x="672" y="97">e</text> <text x="692" y="97">0</text><text x="702" y="97">2</text> <text x="722" y="97">o</text><text x="732" y="97">f</text> <text x="752" y="97">0</text><text x="762" y="97">2</text></g><rect x="772" y="82" width="30" height="20" fill="#000"></rect><g fill="#ccc"></g>
<rect x="2" y="102" width="10" height="20" fill="#000"></rect><g fill="#ccc"></g><rect x="12" y="102" width="20" height="20" fill="#c70"></rect><g fill="#c70"></g><rect x="32" y="102" width="370" height="20" fill="#c70"></rect><g font-weight="bold" fill="#fff"><text x="32" y="117">⠤</text><text x="42" y="117">⠤</text><text x="52" y="117">⠤</text><text x="62" y="117">⠤</text><text x="72" y="117">⠤</text><text x="82" y="117">⠤</text><text x="92" y="117">⠤</text><text x="102" y="117">⠤</text><text x="112" y="117">⠤</text><text x="122" y="117">⠤</text><text x="132" y="117">⠤</text><text x="142" y="117">⠤</text><text x="152" y="117">⠤</text><text x="162" y="117">⠤</text><text x="172" y="117">⠤</text><text x="182" y="117">⠤</text><text x="192" y="117">⠤</text><text x="202" y="117">⠤</text><text x="212" y="117">⠤</text><text x="222" y="117">⠤</text><text x="232" y="117">⠤</text><text x="242" y="117">⠤</text><text x="252" y="117">⠤</text><text x="262" y="117">⠤</text><text x="272" y="117">⠤</text><text x="282" y="117">⠤</text><text x="292" y="117">⠤</text><text x="302" y="117">⠤</text><text x="312" y="117">⠤</text><text x="322" y="117">⠤</text><text x="332" y="117">⠤</text><text x="342" y="117">⠤</text><text x="352" y="117">⠤</text><text x="362" y="117">⠤</text><text x="372" y="117">⠤</text><text x="382" y="117">⠀</text><text x="392" y="117">⠀</text> </g><rect x="402" y="102" width="20" height="20" fill="#000"></rect><g fill="#ccc"><text x="412" y="117">│</text></g><rect x="422" y="102" width="380" height="20" fill="#000"></rect><g fill="#ccc"></g>
<rect x="2" y="122" width="10" height="20" fill="#000"></rect><g fill="#ccc"></g><rect x="12" y="122" width="20" height="20" fill="#c70"></rect><g fill="#c70"></g><rect x="32" y="122" width="20" height="20" fill="#ccc"></rect><g fill="#ccc"></g><rect x="52" y="122" width="320" height="20" fill="#ccc"></rect><g fill="#048"><text x="52" y="137">T</text><text x="62" y="137">V</text><text x="72" y="137">P</text> <text x="92" y="137">S</text><text x="102" y="137">P</text><text x="112" y="137">O</text><text x="122" y="137">R</text><text x="132" y="137">T</text><text x="142" y="137">.</text><text x="152" y="137">.</text><text x="162" y="137">.</text><text x="172" y="137">.</text><text x="182" y="137">.</text><text x="192" y="137">.</text><text x="202" y="137">.</text><text x="212" y="137">.</text><text x="222" y="137">.</text><text x="232" y="137">.</text><text x="242" y="137">.</text><text x="252" y="137">.</text><text x="262" y="137">.</text><text x="272" y="137">.</text><text x="282" y="137">.</text><text x="292" y="137">3</text><text x="302" y="137">4</text><text x="312" y="137">1</text><text x="322" y="137">-</text><text x="332" y="137">3</text><text x="342" y="137">4</text><text x="352" y="137">7</text> </g><rect x="372" y="122" width="10" height="20" fill="#ccc"></rect><g fill="#c70"></g><rect x="382" y="122" width="20" height="20" fill="#c70"></rect><g fill="#c70"></g><rect x="402" y="122" width="20" height="20" fill="#000"></rect><g fill="#ccc"><text x="412" y="137">│</text></g><rect x="422" y="122" width="380" height="20" fill="#000"></rect><g fill="#ccc"></g>
<rect x="2" y="142" width="10" height="20" fill="#000"></rect><g fill="#ccc"></g><rect x="12" y="142" width="20" height="20" fill="#c70"></rect><g fill="#c70"></g><rect x="32" y="142" width="20" height="20" fill="#ccc"></rect><g fill="#ccc"></g><rect x="52" y="142" width="320" height="20" fill="#ccc"></rect><g fill="#048"><text x="52" y="157">T</text><text x="62" y="157">V</text><text x="72" y="157">P</text> <text x="92" y="157">H</text><text x="102" y="157">I</text><text x="112" y="157">S</text><text x="122" y="157">T</text><text x="132" y="157">O</text><text x="142" y="157">R</text><text x="152" y="157">I</text><text x="162" y="157">A</text><text x="172" y="157">.</text><text x="182" y="157">.</text><text x="192" y="157">.</text><text x="202" y="157">.</text><text x="212" y="157">.</text><text x="222" y="157">.</text><text x="232" y="157">.</text><text x="242" y="157">.</text><text x="252" y="157">.</text><text x="262" y="157">.</text><text x="272" y="157">.</text><text x="282" y="157">.</text><text x="292" y="157">3</text><text x="302" y="157">6</text><text x="312" y="157">1</text><text x="322" y="157">-</text><text x="332" y="157">3</text><text x="342" y="157">6</text><text x="352" y="157">7</text> </g><rect x="372" y="142" width="10" height="20" fill="#ccc"></rect><g fill="#c70"></g><rect x="382" y="142" width="20" height="20" fill="#c70"></rect><g fill="#c70"></g><rect x="402" y="142" width="20" height="20" fill="#000"></rect><g fill="#ccc"><text x="412" y="157">│</text></g><rect x="422" y="142" width="380" height="20" fill="#000"></rect><g fill="#ccc"></g>
<rect x="2" y="162" width="10" height="20" fill="#000"></rect><g fill="#ccc"></g><rect x="12" y="162" width="20" height="20" fill="#c70"></rect><g fill="#c70"></g><rect x="32" y="162" width="20" height="20" fill="#ccc"></rect><g fill="#ccc"></g><rect x="52" y="162" width="320" height="20" fill="#ccc"></rect><g fill="#048"><text x="52" y="177">T</text><text x="62" y="177">V</text><text x="72" y="177">P</text> <text x="92" y="177">S</text><text x="102" y="177">E</text><text x="112" y="177">R</text><text x="122" y="177">I</text><text x="132" y="177">A</text><text x="142" y="177">L</text><text x="152" y="177">E</text><text x="162" y="177">.</text><text x="172" y="177">.</text><text x="182" y="177">.</text><text x="192" y="177">.</text><text x="202" y="177">.</text><text x="212" y="177">.</text><text x="222" y="177">.</text><text x="232" y="177">.</text><text x="242" y="177">.</text><text x="252" y="177">.</text><text x="262" y="177">.</text><text x="272" y="177">.</text><text x="282" y="177">.</text><text x="292" y="177">3</text><text x="302" y="177">7</text><text x="312" y="177">1</text><text x="322" y="177">-</text><text x="332" y="177">3</text><text x="342" y="177">7</text><text x="352" y="177">7</text> </g><rect x="372" y="162" width="10" height="20" fill="#ccc"></rect><g fill="#c70"></g><rect x="382" y="162" width="20" height="20" fill="#c70"></rect><g fill="#c70"></g><rect x="402" y="162" width="20" height="20" fill="#000"></rect><g fill="#ccc"><text x="412" y="177">│</text></g><rect x="422" y="162" width="380" height="20" fill="#000"></rect><g fill="#ccc"></g>
<rect x="2" y="182" width="10" height="20" fill="#000"></rect><g fill="#ccc"></g><rect x="12" y="182" width="20" height="20" fill="#c70"></rect><g fill="#c70"></g><rect x="32" y="182" width="20" height="20" fill="#ccc"></rect><g fill="#ccc"></g><rect x="52" y="182" width="320" height="20" fill="#ccc"></rect><g fill="#048"><text x="52" y="197">P</text><text x="62" y="197">R</text><text x="72" y="197">O</text><text x="82" y="197">G</text><text x="92" y="197">R</text><text x="102" y="197">A</text><text x="112" y="197">M</text><text x="122" y="197">Y</text> <text x="142" y="197">D</text><text x="152" y="197">L</text><text x="162" y="197">A</text> <text x="182" y="197">N</text><text x="192" y="197">I</text><text x="202" y="197">E</text><text x="212" y="197">S</text><text x="222" y="197">Ł</text><text x="232" y="197">Y</text><text x="242" y="197">S</text><text x="252" y="197">Z</text><text x="262" y="197">Ą</text><text x="272" y="197">C</text><text x="282" y="197">Y</text><text x="292" y="197">C</text><text x="302" y="197">H</text><text x="312" y="197">.</text><text x="322" y="197">.</text><text x="332" y="197">3</text><text x="342" y="197">3</text><text x="352" y="197">5</text> </g><rect x="372" y="182" width="10" height="20" fill="#ccc"></rect><g fill="#c70"></g><rect x="382" y="182" width="20" height="20" fill="#c70"></rect><g fill="#c70"></g><rect x="402" y="182" width="20" height="20" fill="#000"></rect><g fill="#ccc"><text x="412" y="197">│</text></g><rect x="422" y="182" width="380" height="20" fill="#000"></rect><g fill="#ccc"></g>
<rect x="2" y="202" width="10" height="20" fill="#000"></rect><g fill="#ccc"></g><rect x="12" y="202" width="20" height="20" fill="#c70"></rect><g fill="#c70"></g><rect x="32" y="202" width="20" height="20" fill="#ccc"></rect><g fill="#ccc"></g><rect x="52" y="202" width="320" height="20" fill="#ccc"></rect><g fill="#048"><text x="52" y="217">W</text><text x="62" y="217">E</text><text x="72" y="217">E</text><text x="82" y="217">K</text><text x="92" y="217">E</text><text x="102" y="217">N</text><text x="112" y="217">D</text> <text x="132" y="217">W</text> <text x="152" y="217">T</text><text x="162" y="217">V</text><text x="172" y="217">P</text><text x="182" y="217">.</text><text x="192" y="217">.</text><text x="202" y="217">.</text><text x="212" y="217">.</text><text x="222" y="217">.</text><text x="232" y="217">.</text><text x="242" y="217">.</text><text x="252" y="217">.</text><text x="262" y="217">.</text><text x="272" y="217">.</text><text x="282" y="217">.</text><text x="292" y="217">.</text><text x="302" y="217">.</text><text x="312" y="217">.</text><text x="322" y="217">.</text><text x="332" y="217">3</text><text x="342" y="217">4</text><text x="352" y="217">0</text> </g><rect x="372" y="202" width="10" height="20" fill="#ccc"></rect><g fill="#c70"></g><rect x="382" y="202" width="20" height="20" fill="#c70"></rect><g fill="#c70"></g><rect x="402" y="202" width="20" height="20" fill="#000"></rect><g fill="#ccc"><text x="412" y="217">│</text></g><rect x="422" y="202" width="380" height="20" fill="#000"></rect><g fill="#ccc"></g>
<rect x="2" y="222" width="10" height="20" fill="#000"></rect><g fill="#ccc"></g><rect x="12" y="222" width="20" height="20" fill="#c70"></rect><g fill="#c70"></g><rect x="32" y="222" width="10" height="20" fill="#c70"></rect><g fill="#ccc"></g><rect x="42" y="222" width="340" height="20" fill="#c70"></rect><g font-weight="bold" fill="#444"><text x="42" y="237">⠉</text><text x="52" y="237">⠉</text><text x="62" y="237">⠉</text><text x="72" y="237">⠉</text><text x="82" y="237">⠉</text><text x="92" y="237">⠉</text><text x="102" y="237">⠉</text><text x="112" y="237">⠉</text><text x="122" y="237">⠉</text><text x="132" y="237">⠉</text><text x="142" y="237">⠉</text><text x="152" y="237">⠉</text><text x="162" y="237">⠉</text><text x="172" y="237">⠉</text><text x="182" y="237">⠉</text><text x="192" y="237">⠉</text><text x="202" y="237">⠉</text><text x="212" y="237">⠉</text><text x="222" y="237">⠉</text><text x="232" y="237">⠉</text><text x="242" y="237">⠉</text><text x="252" y="237">⠉</text><text x="262" y="237">⠉</text><text x="272" y="237">⠉</text><text x="282" y="237">⠉</text><text x="292" y="237">⠉</text><text x="302" y="237">⠉</text><text x="312" y="237">⠉</text><text x="322" y="237">⠉</text><text x="332" y="237">⠉</text><text x="342" y="237">⠉</text><text x="352" y="237">⠉</text><text x="362" y="237">⠉</text><text x="372" y="237">⠀</text> </g><rect x="382" y="222" width="10" height="20" fill="#c70"></rect><g fill="#000"></g><rect x="392" y="222" width="10" height="20" fill="#c70"></rect><g fill="#048"></g><rect x="402" y="222" width="20" height="20" fill="#000"></rect><g fill="#ccc"><text x="412" y="237">│</text></g><rect x="422" y="222" width="380" height="20" fill="#000"></rect><g fill="#ccc"></g>
<rect x="2" y="242" width="10" height="20" fill="#000"></rect><g fill="#ccc"></g><rect x="12" y="242" width="20" height="20" fill="#c70"></rect><g fill="#c70"></g><rect x="32" y="242" width="20" height="20" fill="#048"></rect><g fill="#048"></g><rect x="52" y="242" width="320" height="20" fill="#048"></rect><g fill="#ccc"><text x="52" y="257">W</text><text x="62" y="257">S</text><text x="72" y="257">Z</text><text x="82" y="257">Y</text><text x="92" y="257">S</text><text x="102" y="257">T</text><text x="112" y="257">K</text><text x="122" y="257">O</text> <text x="142" y="257">O</text> <text x="162" y="257">A</text><text x="172" y="257">B</text><text x="182" y="257">O</text><text x="192" y="257">N</text><text x="202" y="257">A</text><text x="212" y="257">M</text><text x="222" y="257">E</text><text x="232" y="257">N</text><text x="242" y="257">C</text><text x="252" y="257">I</text><text x="262" y="257">E</text> <text x="282" y="257">.</text><text x="292" y="257">.</text><text x="302" y="257">.</text><text x="312" y="257">.</text> <text x="332" y="257">3</text><text x="342" y="257">5</text><text x="352" y="257">0</text> </g><rect x="372" y="242" width="10" height="20" fill="#048"></rect><g fill="#c70"></g><rect x="382" y="242" width="20" height="20" fill="#c70"></rect><g fill="#c70"></g><rect x="402" y="242" width="20" height="20" fill="#000"></rect><g fill="#ccc"><text x="412" y="257">│</text></g><rect x="422" y="242" width="380" height="20" fill="#000"></rect><g fill="#ccc"></g>
<rect x="2" y="262" width="10" height="20" fill="#000"></rect><g fill="#ccc"></g><rect x="12" y="262" width="30" height="20" fill="#c70"></rect><g fill="#c70"></g><rect x="42" y="262" width="360" height="20" fill="#c70"></rect><g font-weight="bold" fill="#444"><text x="42" y="277">⠉</text><text x="52" y="277">⠉</text><text x="62" y="277">⠉</text><text x="72" y="277">⠉</text><text x="82" y="277">⠉</text><text x="92" y="277">⠉</text><text x="102" y="277">⠉</text><text x="112" y="277">⠉</text><text x="122" y="277">⠉</text><text x="132" y="277">⠉</text><text x="142" y="277">⠉</text><text x="152" y="277">⠉</text><text x="162" y="277">⠉</text><text x="172" y="277">⠉</text><text x="182" y="277">⠉</text><text x="192" y="277">⠉</text><text x="202" y="277">⠉</text><text x="212" y="277">⠉</text><text x="222" y="277">⠉</text><text x="232" y="277">⠉</text><text x="242" y="277">⠉</text><text x="252" y="277">⠉</text><text x="262" y="277">⠉</text><text x="272" y="277">⠉</text><text x="282" y="277">⠉</text><text x="292" y="277">⠉</text><text x="302" y="277">⠉</text><text x="312" y="277">⠉</text><text x="322" y="277">⠉</text><text x="332" y="277">⠉</text><text x="342" y="277">⠉</text><text x="352" y="277">⠉</text><text x="362" y="277">⠉</text><text x="372" y="277">⠀</text><text x="382" y="277">⠀</text><text x="392" y="277">⠀</text> </g><rect x="402" y="262" width="20" height="20" fill="#000"></rect><g fill="#ccc"><text x="412" y="277">│</text></g><rect x="422" y="262" width="380" height="20" fill="#000"></rect><g fill="#ccc"></g>
<rect x="2" y="282" width="10" height="20" fill="#000"></rect><g fill="#ccc"></g><rect x="12" y="282" width="30" height="20" fill="#c70"></rect><g fill="#c70"></g><rect x="42" y="282" width="360" height="20" fill="#c70"></rect><g fill="#048"><text x="52" y="297">O</text><text x="62" y="297">Z</text><text x="72" y="297">N</text><text x="82" y="297">A</text><text x="92" y="297">C</text><text x="102" y="297">Z</text><text x="112" y="297">E</text><text x="122" y="297">N</text><text x="132" y="297">I</text><text x="142" y="297">A</text> <text x="162" y="297">K</text><text x="172" y="297">A</text><text x="182" y="297">T</text><text x="192" y="297">E</text><text x="202" y="297">G</text><text x="212" y="297">O</text><text x="222" y="297">R</text><text x="232" y="297">I</text><text x="242" y="297">I</text> <text x="262" y="297">W</text><text x="272" y="297">I</text><text x="282" y="297">E</text><text x="292" y="297">K</text><text x="302" y="297">O</text><text x="312" y="297">W</text><text x="322" y="297">Y</text><text x="332" y="297">C</text><text x="342" y="297">H</text><text x="352" y="297">:</text> </g><rect x="402" y="282" width="20" height="20" fill="#000"></rect><g fill="#ccc"><text x="412" y="297">│</text></g><rect x="422" y="282" width="380" height="20" fill="#000"></rect><g fill="#ccc"></g>
<rect x="2" y="302" width="10" height="20" fill="#000"></rect><g fill="#ccc"></g><rect x="12" y="302" width="20" height="20" fill="#c70"></rect><g fill="#c70"></g><rect x="32" y="302" width="20" height="20" fill="#000"></rect><g fill="#c70"></g><rect x="52" y="302" width="210" height="20" fill="#000"></rect><g fill="#050"><text x="52" y="317">■</text> <text x="92" y="317">-</text> <text x="112" y="317">d</text><text x="122" y="317">l</text><text x="132" y="317">a</text> <text x="152" y="317">w</text><text x="162" y="317">s</text><text x="172" y="317">z</text><text x="182" y="317">y</text><text x="192" y="317">s</text><text x="202" y="317">t</text><text x="212" y="317">k</text><text x="222" y="317">i</text><text x="232" y="317">c</text><text x="242" y="317">h</text> </g><rect x="262" y="302" width="120" height="20" fill="#000"></rect><g fill="#c70"></g><rect x="382" y="302" width="20" height="20" fill="#c70"></rect><g fill="#c70"></g><rect x="402" y="302" width="20" height="20" fill="#000"></rect><g fill="#ccc"><text x="412" y="317">│</text></g><rect x="422" y="302" width="380" height="20" fill="#000"></rect><g fill="#ccc"></g>
<rect x="2" y="322" width="10" height="20" fill="#000"></rect><g fill="#ccc"></g><rect x="12" y="322" width="20" height="20" fill="#c70"></rect><g fill="#c70"></g><rect x="32" y="322" width="350" height="20" fill="#000"></rect><g fill="#c70"><text x="52" y="337">■</text><text x="62" y="337">7</text> <text x="92" y="337">-</text> <text x="112" y="337">d</text><text x="122" y="337">l</text><text x="132" y="337">a</text> <text x="152" y="337">m</text><text x="162" y="337">a</text><text x="172" y="337">ł</text><text x="182" y="337">o</text><text x="192" y="337">l</text><text x="202" y="337">e</text><text x="212" y="337">t</text><text x="222" y="337">n</text><text x="232" y="337">i</text><text x="242" y="337">c</text><text x="252" y="337">h</text> <text x="272" y="337">o</text><text x="282" y="337">d</text> <text x="302" y="337">l</text><text x="312" y="337">a</text><text x="322" y="337">t</text> <text x="342" y="337">7</text> </g><rect x="382" y="322" width="20" height="20" fill="#c70"></rect><g fill="#c70"></g><rect x="402" y="322" width="20" height="20" fill="#000"></rect><g fill="#ccc"><text x="412" y="337">│</text></g><rect x="422" y="322" width="380" height="20" fill="#000"></rect><g fill="#ccc"></g>
<rect x="2" y="342" width="10" height="20" fill="#000"></rect><g fill="#ccc"></g><rect x="12" y="342" width="20" height="20" fill="#c70"></rect><g fill="#c70"></g><rect x="32" y="342" width="350" height="20" fill="#000"></rect><g fill="#c70"><text x="52" y="357">■</text><text x="62" y="357">1</text><text x="72" y="357">2</text> <text x="92" y="357">-</text> <text x="112" y="357">d</text><text x="122" y="357">l</text><text x="132" y="357">a</text> <text x="152" y="357">m</text><text x="162" y="357">a</text><text x="172" y="357">ł</text><text x="182" y="357">o</text><text x="192" y="357">l</text><text x="202" y="357">e</text><text x="212" y="357">t</text><text x="222" y="357">n</text><text x="232" y="357">i</text><text x="242" y="357">c</text><text x="252" y="357">h</text> <text x="272" y="357">o</text><text x="282" y="357">d</text> <text x="302" y="357">l</text><text x="312" y="357">a</text><text x="322" y="357">t</text> <text x="342" y="357">1</text><text x="352" y="357">2</text> </g><rect x="382" y="342" width="20" height="20" fill="#c70"></rect><g fill="#c70"></g><rect x="402" y="342" width="20" height="20" fill="#000"></rect><g fill="#ccc"><text x="412" y="357">│</text></g><rect x="422" y="342" width="380" height="20" fill="#000"></rect><g fill="#ccc"></g>
<rect x="2" y="362" width="10" height="20" fill="#000"></rect><g fill="#ccc"></g><rect x="12" y="362" width="20" height="20" fill="#c70"></rect><g fill="#c70"></g><rect x="32" y="362" width="350" height="20" fill="#000"></rect><g fill="#c70"><text x="52" y="377">■</text><text x="62" y="377">1</text><text x="72" y="377">6</text> <text x="92" y="377">-</text> <text x="112" y="377">d</text><text x="122" y="377">l</text><text x="132" y="377">a</text> <text x="152" y="377">m</text><text x="162" y="377">a</text><text x="172" y="377">ł</text><text x="182" y="377">o</text><text x="192" y="377">l</text><text x="202" y="377">e</text><text x="212" y="377">t</text><text x="222" y="377">n</text><text x="232" y="377">i</text><text x="242" y="377">c</text><text x="252" y="377">h</text> <text x="272" y="377">o</text><text x="282" y="377">d</text> <text x="302" y="377">l</text><text x="312" y="377">a</text><text x="322" y="377">t</text> <text x="342" y="377">1</text><text x="352" y="377">6</text> </g><rect x="382" y="362" width="20" height="20" fill="#c70"></rect><g fill="#c70"></g><rect x="402" y="362" width="20" height="20" fill="#000"></rect><g fill="#ccc"><text x="412" y="377">│</text></g><rect x="422" y="362" width="380" height="20" fill="#000"></rect><g fill="#ccc"></g>
<rect x="2" y="382" width="10" height="20" fill="#000"></rect><g fill="#ccc"></g><rect x="12" y="382" width="20" height="20" fill="#c70"></rect><g fill="#c70"></g><rect x="32" y="382" width="20" height="20" fill="#000"></rect><g fill="#c70"></g><rect x="52" y="382" width="160" height="20" fill="#000"></rect><g fill="#c00"><text x="52" y="397">■</text> <text x="92" y="397">-</text> <text x="112" y="397">o</text><text x="122" y="397">d</text> <text x="142" y="397">l</text><text x="152" y="397">a</text><text x="162" y="397">t</text> <text x="182" y="397">1</text><text x="192" y="397">8</text> </g><rect x="212" y="382" width="170" height="20" fill="#000"></rect><g fill="#c70"></g><rect x="382" y="382" width="20" height="20" fill="#c70"></rect><g fill="#c70"></g><rect x="402" y="382" width="20" height="20" fill="#000"></rect><g fill="#ccc"><text x="412" y="397">│</text></g><rect x="422" y="382" width="380" height="20" fill="#000"></rect><g fill="#ccc"></g>
<rect x="2" y="402" width="10" height="20" fill="#000"></rect><g fill="#ccc"></g><rect x="12" y="402" width="390" height="20" fill="#000"></rect><g font-weight="bold" fill="#ff0"><text x="12" y="417">⠛</text><text x="22" y="417">⠛</text><text x="32" y="417">⠛</text><text x="42" y="417">⠛</text><text x="52" y="417">⠛</text><text x="62" y="417">⠛</text><text x="72" y="417">⠛</text><text x="82" y="417">⠛</text><text x="92" y="417">⠛</text><text x="102" y="417">⠛</text><text x="112" y="417">⠛</text><text x="122" y="417">⠛</text><text x="132" y="417">⠛</text><text x="142" y="417">⠛</text><text x="152" y="417">⠛</text><text x="162" y="417">⠛</text><text x="172" y="417">⠛</text><text x="182" y="417">⠛</text><text x="192" y="417">⠛</text><text x="202" y="417">⠛</text><text x="212" y="417">⠛</text><text x="222" y="417">⠛</text><text x="232" y="417">⠛</text><text x="242" y="417">⠛</text><text x="252" y="417">⠛</text><text x="262" y="417">⠛</text><text x="272" y="417">⠛</text><text x="282" y="417">⠛</text><text x="292" y="417">⠛</text><text x="302" y="417">⠛</text><text x="312" y="417">⠛</text><text x="322" y="417">⠛</text><text x="332" y="417">⠛</text><text x="342" y="417">⠛</text><text x="352" y="417">⠛</text><text x="362" y="417">⠛</text><text x="372" y="417">⠛</text><text x="382" y="417">⠛</text><text x="392" y="417">⠛</text> </g><rect x="402" y="402" width="20" height="20" fill="#000"></rect><g fill="#ccc"><text x="412" y="417">│</text></g><rect x="422" y="402" width="380" height="20" fill="#000"></rect><g fill="#ccc"></g>
<rect x="2" y="422" width="10" height="20" fill="#000"></rect><g fill="#ccc"></g><rect x="12" y="422" width="20" height="20" fill="#c0c"></rect><g fill="#c0c"></g><rect x="32" y="422" width="370" height="20" fill="#c0c"></rect><g fill="#ccc"><text x="32" y="437">W</text><text x="42" y="437">r</text><text x="52" y="437">ó</text><text x="62" y="437">ż</text><text x="72" y="437">b</text><text x="82" y="437">a</text> <text x="102" y="437">D</text><text x="112" y="437">N</text><text x="122" y="437">I</text><text x="132" y="437">A</text><text x="142" y="437">-</text><text x="152" y="437">s</text><text x="162" y="437">p</text><text x="172" y="437">r</text><text x="182" y="437">a</text><text x="192" y="437">w</text><text x="202" y="437">d</text><text x="212" y="437">ź</text> <text x="232" y="437">c</text><text x="242" y="437">o</text> <text x="262" y="437">C</text><text x="272" y="437">i</text><text x="282" y="437">ę</text> <text x="302" y="437">c</text><text x="312" y="437">z</text><text x="322" y="437">e</text><text x="332" y="437">k</text><text x="342" y="437">a</text> <text x="362" y="437">5</text><text x="372" y="437">5</text><text x="382" y="437">1</text> </g><rect x="402" y="422" width="20" height="20" fill="#000"></rect><g fill="#ccc"><text x="412" y="437">│</text></g><rect x="422" y="422" width="380" height="20" fill="#000"></rect><g fill="#ccc"></g>
<rect x="2" y="442" width="10" height="20" fill="#000"></rect><g fill="#ccc"></g><rect x="12" y="442" width="20" height="20" fill="#ccc"></rect><g fill="#ccc"></g><rect x="32" y="442" width="370" height="20" fill="#ccc"></rect><g fill="#c0c"><text x="32" y="457">Z</text> <text x="52" y="457">k</text><text x="62" y="457">i</text><text x="72" y="457">m</text> <text x="92" y="457">s</text><text x="102" y="457">i</text><text x="112" y="457">ę</text> <text x="132" y="457">z</text><text x="142" y="457">w</text><text x="152" y="457">i</text><text x="162" y="457">ą</text><text x="172" y="457">ż</text><text x="182" y="457">e</text><text x="192" y="457">s</text><text x="202" y="457">z</text><text x="212" y="457">?</text><text x="222" y="457">Z</text><text x="232" y="457">o</text><text x="242" y="457">b</text><text x="252" y="457">a</text><text x="262" y="457">c</text><text x="272" y="457">z</text> <text x="292" y="457">z</text><text x="302" y="457">d</text><text x="312" y="457">j</text><text x="322" y="457">ę</text><text x="332" y="457">c</text><text x="342" y="457">i</text><text x="352" y="457">e</text><text x="362" y="457">5</text><text x="372" y="457">5</text><text x="382" y="457">7</text> </g><rect x="402" y="442" width="20" height="20" fill="#000"></rect><g fill="#ccc"><text x="412" y="457">│</text></g><rect x="422" y="442" width="380" height="20" fill="#000"></rect><g fill="#ccc"></g>
<rect x="2" y="462" width="10" height="20" fill="#000"></rect><g fill="#ccc"></g><rect x="12" y="462" width="20" height="20" fill="#c0c"></rect><g fill="#c0c"></g><rect x="32" y="462" width="370" height="20" fill="#c0c"></rect><g fill="#ccc"><text x="32" y="477">W</text><text x="42" y="477">r</text><text x="52" y="477">ó</text><text x="62" y="477">ż</text><text x="72" y="477">b</text><text x="82" y="477">y</text> <text x="102" y="477">c</text><text x="112" y="477">y</text><text x="122" y="477">g</text><text x="132" y="477">a</text><text x="142" y="477">ń</text><text x="152" y="477">s</text><text x="162" y="477">k</text><text x="172" y="477">i</text><text x="182" y="477">e</text> <text x="202" y="477">d</text><text x="212" y="477">l</text><text x="222" y="477">a</text> <text x="242" y="477">k</text><text x="252" y="477">a</text><text x="262" y="477">ż</text><text x="272" y="477">d</text><text x="282" y="477">e</text><text x="292" y="477">g</text><text x="302" y="477">o</text> <text x="322" y="477">.</text><text x="332" y="477">.</text><text x="342" y="477">.</text> <text x="362" y="477">5</text><text x="372" y="477">5</text><text x="382" y="477">9</text> </g><rect x="402" y="462" width="20" height="20" fill="#000"></rect><g fill="#ccc"><text x="412" y="477">│</text></g><rect x="422" y="462" width="380" height="20" fill="#000"></rect><g fill="#ccc"></g>
<rect x="2" y="482" width="10" height="20" fill="#000"></rect><g fill="#ccc"></g><rect x="12" y="482" width="100" height="20" fill="#000"></rect><g fill="#c00"><text x="42" y="497">T</text><text x="52" y="497">V</text><text x="62" y="497">P</text> <text x="82" y="497">1</text> </g><rect x="112" y="482" width="100" height="20" fill="#000"></rect><g fill="#050"><text x="142" y="497">T</text><text x="152" y="497">V</text><text x="162" y="497">P</text> <text x="182" y="497">2</text> </g><rect x="212" y="482" width="100" height="20" fill="#000"></rect><g fill="#c70"><text x="212" y="497">K</text><text x="222" y="497">I</text><text x="232" y="497">N</text><text x="242" y="497">O</text> <text x="262" y="497">T</text><text x="272" y="497">V</text><text x="282" y="497">1</text> </g><rect x="312" y="482" width="90" height="20" fill="#000"></rect><g fill="#088"><text x="312" y="497">K</text><text x="322" y="497">I</text><text x="332" y="497">N</text><text x="342" y="497">O</text> <text x="362" y="497">T</text><text x="372" y="497">V</text><text x="382" y="497">2</text> </g><rect x="402" y="482" width="20" height="20" fill="#000"></rect><g fill="#ccc"><text x="412" y="497">│</text></g><rect x="422" y="482" width="380" height="20" fill="#000"></rect><g fill="#ccc"></g>
</g>
</svg>
